<svg width="94" height="45" viewBox="0 0 94 45" fill="none" xmlns="http://www.w3.org/2000/svg">
<path d="M10.7913 44.7747C8.80147 44.7747 6.98716 44.3881 5.34844 43.615C3.70971 42.8419 2.40542 41.699 1.43556 40.1863C0.482427 38.6568 0.00585938 36.7828 0.00585938 34.5643V23.4462H4.49951H8.73458V34.0348C8.73458 34.808 8.88507 35.4298 9.18606 35.9005C9.50378 36.3711 10.0054 36.6064 10.691 36.6064C12.012 36.6064 12.6725 35.7912 12.6725 34.1609V0H21.5768V33.2785C21.5768 35.6315 21.117 37.6736 20.1973 39.4048C19.2776 41.1191 18.0068 42.4469 16.3847 43.3881C14.7627 44.3125 12.8983 44.7747 10.7913 44.7747Z" fill="white"/>
<path d="M35.1966 44.7747C31.5179 44.7747 28.809 43.7411 27.0699 41.6738C25.3308 39.5897 24.4613 36.5307 24.4613 32.497V0H33.0395V32.144C33.0395 32.8835 33.0814 33.5978 33.165 34.2869C33.2486 34.9592 33.4409 35.5139 33.7419 35.9509C34.0428 36.3879 34.5278 36.6064 35.1966 36.6064C35.8822 36.6064 36.3755 36.3963 36.6765 35.9761C36.9775 35.5391 37.1614 34.976 37.2283 34.2869C37.3119 33.5978 37.3537 32.8835 37.3537 32.144V0H45.932V32.497C45.932 36.5307 45.0624 39.5897 43.3234 41.6738C41.5843 43.7411 38.8754 44.7747 35.1966 44.7747Z" fill="white"/>
<path d="M49.3181 44.3713V0H58.398L62.4613 21.2529V0H70.9894V44.3713H62.361L57.9465 22.1857V44.3713H49.3181Z" fill="white"/>
<path d="M74.9023 44.3713V0H92.5604V8.57174H83.8818V17.2191H92.2092V25.5639H83.8818V35.724H93.1373V44.7747L74.9023 44.3713Z" fill="white"/>
</svg>
