<svg width="234" height="45" viewBox="0 0 234 45" fill="none" xmlns="http://www.w3.org/2000/svg">
<path d="M73.1497 27.6812C75.23 33.294 77.8777 40.1187 81.2819 44.7109H63.0003C63.0633 42.7337 62.4329 40.0549 61.6134 37.1209L55.1203 18.2416C53.9855 15.18 52.9138 12.5012 51.8422 10.1413L38.0364 44.6472H36.2082L33.8758 40.4376V40.3738L21.4569 17.54C19.8178 14.8611 18.4309 12.4374 16.918 10.0137L9.4162 35.3988C8.65972 38.5879 7.8402 42.0959 8.21844 44.7109L0.275391 44.7747C1.47315 42.6061 3.04915 38.3966 4.0578 35.3988L13.6399 5.29388C12.3791 3.63555 10.9292 1.91345 9.29012 0.0637801H26.6261C28.1391 3.69934 29.526 6.50573 31.165 9.75859L40.3058 26.5969L49.8879 5.86791C48.6271 3.38043 47.4924 1.46698 46.5468 0.0637801H63.9459C65.0176 5.16632 66.0262 8.35539 67.35 12.1185L73.1497 27.6812Z" fill="white"/>
<path d="M86.3541 44.7109C89.9474 41.3943 94.045 35.6539 96.9449 31.1254C102.177 22.7701 107.346 14.3509 112.579 5.93169C109.994 3.38043 106.905 1.14807 103.69 0.382688V0.0637801H126.259L143.153 26.0867L146.242 30.9341C149.457 35.9729 154.564 43.1802 157.148 44.7109H134.328C135.525 43.244 134.139 39.736 132.878 37.1209L129.347 31.1892H102.555L98.3318 38.269C97.071 40.5651 96.4406 42.7337 97.2601 44.7109H86.3541ZM104.258 28.2553H127.582L119.072 14.0957C118.252 12.8201 117.055 11.0342 115.605 9.24834L104.258 28.2553Z" fill="white"/>
<path d="M218.492 31.827C222.967 35.9729 228.956 41.2667 233.999 44.7109H231.289C231.1 44.7109 215.529 44.7109 211.179 44.7109H206.451C206.451 40.3738 198.634 32.0822 196.617 30.0412L192.141 25.5764L177.768 39.9911C176.129 41.8408 175.057 43.6266 175.435 44.7109H164.907C169.572 41.3305 173.292 38.2052 176.003 35.7815L189.178 22.5149L185.648 19.0069C185.648 19.0069 173.481 6.44195 164.088 0H191.006C191.006 3.06152 195.104 8.03649 198.193 11.3531L201.66 14.8611L204.181 17.4124L215.718 6.05926C217.987 3.76312 219.941 1.4032 219.5 0.0637801H230.028C224.669 3.95446 220.446 7.52624 217.546 10.1413L207.144 20.4101L218.492 31.827Z" fill="white"/>
</svg>
