<svg width="146" height="45" viewBox="0 0 146 45" fill="none" xmlns="http://www.w3.org/2000/svg">
<path d="M0.103516 44.1441V2.73273H4.53265V44.1441H0.103516Z" fill="white"/>
<path d="M12.6511 44.1441V9.45945H16.2366L16.799 13.1732C17.174 11.7718 18.041 10.6974 19.4002 9.94994C20.7594 9.20253 22.1655 8.82882 23.6185 8.82882C26.1025 8.82882 27.907 9.2726 29.0318 10.1601C30.2036 11.001 30.9535 12.1221 31.2816 13.5235C31.6097 14.8782 31.7737 16.373 31.7737 18.008V44.1441H27.4149V18.6386C27.4149 17.7978 27.3914 16.9803 27.3446 16.1862C27.2977 15.392 27.1102 14.6913 26.7821 14.0841C26.5009 13.4301 26.0088 12.9162 25.3057 12.5425C24.6027 12.1688 23.5716 11.982 22.2124 11.982C21.0407 11.982 20.0798 12.2155 19.3299 12.6827C18.6269 13.1031 18.0879 13.6169 17.7129 14.2242C17.3849 14.7848 17.1505 15.322 17.0099 15.8358V44.1441H12.6511Z" fill="white"/>
<path d="M42.679 44.1441V5.88588H35.7189V2.73273H54.2088V5.88588H47.1081V44.1441H42.679Z" fill="white"/>
<path d="M58.7192 44.1441V9.45945H62.375L62.8672 13.1732C63.3827 11.8652 64.2264 10.9309 65.3981 10.3704C66.5698 9.8098 67.7416 9.45945 68.9133 9.31931C70.2256 9.03903 71.4911 9.01567 72.7097 9.24924V12.6827C72.5222 12.636 72.1941 12.5892 71.7254 12.5425C71.2567 12.4958 70.7412 12.4725 70.1787 12.4725C69.6632 12.4725 69.1711 12.5659 68.7024 12.7527C67.1088 12.9396 65.773 13.5235 64.6951 14.5045C63.6171 15.4388 63.0781 16.7234 63.0781 18.3583V44.1441H58.7192Z" fill="white"/>
<path d="M85.5 44.7747C83.1566 44.7747 81.2584 44.5178 79.8054 44.0039C78.3525 43.4434 77.2979 42.4391 76.6417 40.9909C75.9856 39.5428 75.6575 37.4407 75.6575 34.6846V17.3774C75.6575 14.1074 76.384 11.8652 77.8369 10.6506C79.3367 9.43609 81.7974 8.82882 85.2188 8.82882C88.5465 8.82882 90.9368 9.43609 92.3898 10.6506C93.8896 11.8652 94.6395 14.1074 94.6395 17.3774V26.3463H80.0163V36.1561C80.0163 38.3984 80.3678 39.9632 81.0709 40.8508C81.7739 41.6916 83.2034 42.1121 85.3594 42.1121C87.3279 42.1121 88.6402 41.6916 89.2964 40.8508C89.9526 40.01 90.2807 38.4451 90.2807 36.1561V31.6716H94.6395V34.6146C94.6395 37.3239 94.3114 39.426 93.6552 40.9209C92.9991 42.369 91.9914 43.3733 90.6322 43.9339C89.3198 44.4944 87.6091 44.7747 85.5 44.7747ZM80.0163 24.1041H90.2807V17.2372C90.2807 15.2753 89.9526 13.8505 89.2964 12.9629C88.6402 12.0754 87.281 11.6316 85.2188 11.6316C83.1566 11.6316 81.7739 12.0754 81.0709 12.9629C80.3678 13.8505 80.0163 15.2753 80.0163 17.2372V24.1041Z" fill="white"/>
<path d="M100.874 44.1441V9.45945H104.459L105.022 13.1732C105.397 11.7718 106.264 10.6974 107.623 9.94994C108.982 9.20253 110.388 8.82882 111.841 8.82882C114.325 8.82882 116.13 9.2726 117.255 10.1601C118.427 11.001 119.176 12.1221 119.505 13.5235C119.833 14.8782 119.997 16.373 119.997 18.008V44.1441H115.638V18.6386C115.638 17.7978 115.614 16.9803 115.567 16.1862C115.521 15.392 115.333 14.6913 115.005 14.0841C114.724 13.4301 114.232 12.9162 113.529 12.5425C112.826 12.1688 111.795 11.982 110.435 11.982C109.264 11.982 108.303 12.2155 107.553 12.6827C106.85 13.1031 106.311 13.6169 105.936 14.2242C105.608 14.7848 105.373 15.322 105.233 15.8358V44.1441H100.874Z" fill="white"/>
<path d="M134.628 44.7046C132.894 44.7046 131.464 44.4944 130.34 44.074C129.215 43.6069 128.324 42.9763 127.668 42.1821C127.059 41.3413 126.637 40.3136 126.402 39.099C126.168 37.8378 126.051 36.413 126.051 34.8248V17.5175C126.051 16.2562 126.168 15.1118 126.402 14.0841C126.684 13.0097 127.129 12.0988 127.738 11.3513C128.348 10.5572 129.168 9.94994 130.199 9.52952C131.23 9.06239 132.542 8.82882 134.136 8.82882C136.011 8.82882 137.464 9.1091 138.495 9.66966C139.573 10.2302 140.346 10.9076 140.815 11.7017V0H145.174V44.1441H142.151L141.729 40.8508C141.447 41.4581 141.026 42.0653 140.463 42.6726C139.948 43.2332 139.221 43.7237 138.284 44.1441C137.393 44.5178 136.175 44.7046 134.628 44.7046ZM135.401 42.042C136.761 42.042 137.815 41.8084 138.565 41.3413C139.315 40.8274 139.831 40.1735 140.112 39.3793C140.44 38.5852 140.627 37.721 140.674 36.7867C140.768 35.8058 140.815 34.8481 140.815 33.9139V14.9249C140.674 14.5045 140.416 14.0374 140.041 13.5235C139.713 13.0097 139.198 12.5659 138.495 12.1922C137.792 11.8185 136.831 11.6316 135.612 11.6316C134.253 11.6316 133.222 11.8185 132.519 12.1922C131.816 12.5659 131.3 13.0797 130.972 13.7337C130.691 14.341 130.527 15.0417 130.48 15.8358C130.433 16.6299 130.41 17.4474 130.41 18.2883V35.3853C130.41 36.5065 130.48 37.5809 130.621 38.6086C130.761 39.6363 131.183 40.4771 131.886 41.1311C132.589 41.7383 133.761 42.042 135.401 42.042Z" fill="white"/>
</svg>
