<svg width="188" height="45" viewBox="0 0 188 45" fill="none" xmlns="http://www.w3.org/2000/svg">
<path d="M47.5772 43.8547H40.7287L9.94123 4.72281V39.2546L17.6535 43.732V43.8547H0.0078125V43.732L7.7201 39.2546V4.10946L0.0695107 1.0427V0.920028H14.1984L42.2711 37.0465V5.52017L34.5588 1.0427V0.920028H52.1429V1.0427L44.4306 5.52017V39.8066L47.5772 43.8547Z" fill="white"/>
<path d="M56.4641 0.981361V0.920028H78.1819V1.0427L69.791 5.33617V39.4386L78.1819 43.732V43.8547H56.4641V43.732L64.8551 39.4386V5.33617L56.4641 0.981361Z" fill="white"/>
<path d="M130.665 43.8547H123.816L93.029 4.72281V39.2546L100.741 43.732V43.8547H83.0956V43.732L90.8079 39.2546V4.10946L83.1573 1.0427V0.920028H97.2862L125.359 37.0465V5.52017L117.647 1.0427V0.920028H135.231V1.0427L127.518 5.52017V39.8066L130.665 43.8547Z" fill="white"/>
<path d="M162.857 44.7747C149.222 44.7747 138.548 36.2491 138.548 22.51C138.548 8.95495 149.222 0 162.857 0C176.431 0 187.166 8.95495 187.166 22.51C187.166 36.2491 176.492 44.7747 162.857 44.7747ZM144.841 22.51C144.841 35.3291 151.998 42.8733 162.857 42.8733C173.778 42.8733 180.873 35.3291 180.873 22.51C180.873 9.93631 173.778 1.84006 162.857 1.84006C151.998 1.84006 144.841 9.93631 144.841 22.51Z" fill="white"/>
</svg>
