<svg width="86" height="45" viewBox="0 0 86 45" fill="none" xmlns="http://www.w3.org/2000/svg">
<path d="M28.7267 0.664465L22.2284 38.1301L25.3744 38.6923L25.3228 38.9479H17.4836L23.5693 3.73123L22.1252 6.23575C20.7327 4.08901 17.3288 3.06676 15.6785 3.06676C13.5124 3.06676 11.6041 5.16238 11.501 6.0313L9.6959 15.5383H17.071L16.9678 16.1005L14.9564 16.3561L9.59275 16.2027L4.69323 42.168L0.0515739 44.7747H0L4.84795 16.1005H1.34092L1.44407 15.3849L4.9511 15.1805H5.00267L5.31211 13.2893C5.87943 9.86475 14.2344 0.153336 17.7414 0C19.3402 0.153336 22.8472 0.204452 24.446 0.920029L28.1078 0.61335L28.7267 0.664465Z" fill="white"/>
<path d="M32.4694 39.6123C30.2517 39.1012 27.6215 37.1078 27.673 32.1499C27.673 22.7451 37.2658 14.0049 45.2597 14.2604C46.9101 14.8738 49.4372 15.896 49.4888 21.2118C49.4888 29.6965 40.9275 39.6634 32.4694 39.6123ZM35.667 37.9767C41.1338 38.4879 43.8157 29.7987 44.4861 21.9785C44.6924 19.2695 43.5578 16.2027 41.0307 15.9983C35.8733 15.4871 32.6757 25.3008 32.6757 32.201C32.6757 35.1144 33.5525 37.7723 35.667 37.9767Z" fill="white"/>
<path d="M50.1049 15.3338L50.1564 14.9249H58.0988L58.6661 37.5167L58.7177 37.7212L66.6601 23.8185L65.6802 15.9472L70.1155 14.9249L72.5911 37.5167V37.6189C74.9635 33.1721 81.1008 21.6718 81.2555 20.7006C81.8744 18.8606 80.4819 15.1805 77.8516 15.1805C77.9032 15.0782 77.9032 15.0271 77.9032 14.9249H85.072L72.9005 39.0501H71.8175L68.6199 39.7146L66.8148 24.943L58.9756 39.0501H57.8925L54.6949 39.7146L53.1993 15.6405L50.1049 15.3338Z" fill="white"/>
</svg>
